<?xml version="1.0" encoding="utf-8"?>
<!-- Generator: Adobe Illustrator 24.2.0, SVG Export Plug-In . SVG Version: 6.00 Build 0)  -->
<svg version="1.1" id="Layer_1" xmlns="http://www.w3.org/2000/svg" xmlns:xlink="http://www.w3.org/1999/xlink" x="0px" y="0px"
	 viewBox="0 0 197 60" style="enable-background:new 0 0 197 60;" xml:space="preserve">
<style type="text/css">
	.st0{fill:#231F20;}
	.st1{fill:#00A0DF;}
	.st2{fill:#002B49;}
	.st3{fill:#C2D500;}
</style>
<g>
	<g>
		<g>
			<polygon class="st0" points="99,27.2 80.9,27.2 80.9,22.6 99,22.6 99,17.5 80.9,17.5 80.9,13.4 99,13.4 99,8.3 74.5,8.3 
				74.5,32.3 99,32.3 			"/>
			<polygon class="st0" points="177,17.8 192.2,32.3 197,32.3 197,8.3 190.6,8.3 190.6,22.9 175.4,8.3 170.6,8.3 170.6,32.3 
				177,32.3 			"/>
			<path class="st0" d="M163.6,8.3h-26.5v24h26.5V8.3z M157.2,27.2h-13.6V13.4h13.6V27.2z"/>
			<polygon class="st0" points="47.6,17.8 62.8,32.3 67.6,32.3 67.6,8.3 61.2,8.3 61.2,22.9 46,8.3 41.1,8.3 41.1,32.3 47.6,32.3 
							"/>
			<polygon class="st0" points="118.1,24.9 124.7,32.3 132.8,32.3 122.2,20.3 132.8,8.3 124.7,8.3 118.1,15.8 111.5,8.3 103.4,8.3 
				114.1,20.3 103.4,32.3 111.6,32.3 			"/>
		</g>
	</g>
	<g>
		<g>
			<polygon class="st1" points="0,32.4 0,52.6 26.8,38.3 			"/>
			<polygon class="st2" points="26.8,0 0,14.2 0,32.4 26.8,38.3 			"/>
			<polygon class="st3" points="26.8,38.3 0,52.6 33.2,59.9 59.9,45.7 			"/>
		</g>
	</g>
</g>
</svg>
